<svg viewBox="0 0 1024 500" xmlns="http://www.w3.org/2000/svg" width="1024" height="500">
  <title>Velo Feature Graphic</title>
  <defs>
    <linearGradient id="vGrad" x1="0" y1="0" x2="1" y2="1"><stop offset="0%" stop-color="#FF4D9D"/><stop offset="20%" stop-color="#B14DFF"/><stop offset="40%" stop-color="#4D7DFF"/><stop offset="60%" stop-color="#2BD9D9"/><stop offset="80%" stop-color="#4DFF88"/><stop offset="100%" stop-color="#FFE24D"/></linearGradient>
    <linearGradient id="scopeGrad" x1="0" y1="0" x2="1" y2="0"><stop offset="0%" stop-color="#FF4D9D"/><stop offset="20%" stop-color="#B14DFF"/><stop offset="40%" stop-color="#4D7DFF"/><stop offset="60%" stop-color="#2BD9D9"/><stop offset="80%" stop-color="#4DFF88"/><stop offset="100%" stop-color="#FFE24D"/></linearGradient>
    <filter id="glow" x="-60%" y="-60%" width="220%" height="220%">
      <feGaussianBlur stdDeviation="8.0"/>
    </filter>
  </defs>
  <clipPath id="b"><rect width="1024" height="500"/></clipPath>
  <linearGradient id="fade" x1="0" y1="0" x2="1" y2="0">
    <stop offset="0%" stop-color="#F4F3EF" stop-opacity="1"/>
    <stop offset="22%" stop-color="#F4F3EF" stop-opacity="0"/>
  </linearGradient>
  <g clip-path="url(#b)">
    <rect width="1024" height="500" fill="#F4F3EF"/>
    <line x1="470" y1="250" x2="1002" y2="250" stroke="#FFFFFF" stroke-opacity="0.10" stroke-width="1"/>
    <polyline points="470.0,250.0 472.5,249.8 475.0,249.4 477.5,248.7 480.0,248.0 482.5,247.3 485.0,246.5 487.5,245.9 490.0,245.5 492.5,245.2 495.0,245.1 497.5,245.2 500.0,245.5 502.5,246.0 505.0,246.7 507.5,247.5 510.0,248.4 512.5,249.4 515.0,250.3 517.5,251.2 520.0,252.0 522.5,252.7 525.0,253.2 527.5,253.5 530.0,253.5 532.5,253.3 535.0,252.9 537.5,252.2 540.0,251.3 542.5,250.2 545.0,249.0 547.5,247.7 550.0,246.3 552.5,244.8 555.0,243.3 557.5,241.7 560.0,240.2 562.5,238.6 565.0,237.2 567.5,235.9 570.0,234.6 572.5,233.5 575.0,232.6 577.5,231.9 580.0,231.4 582.5,231.1 585.0,231.0 587.5,231.2 590.0,231.7 592.5,232.4 595.0,233.4 597.5,234.7 600.0,236.3 602.5,238.2 605.0,240.3 607.5,242.6 610.0,245.3 612.5,248.1 615.0,251.2 617.5,254.4 620.0,257.9 622.5,261.5 625.0,265.2 627.5,269.0 630.0,272.9 632.5,276.9 635.0,280.9 637.5,284.9 640.0,288.9 642.5,292.8 645.0,296.7 647.5,300.5 650.0,304.2 652.5,307.7 655.0,311.1 657.5,314.4 660.0,317.5 662.5,320.3 665.0,323.0 667.5,325.5 670.0,327.8 672.5,329.9 675.0,331.7 677.5,333.4 680.0,334.8 682.5,336.1 685.0,337.1 687.5,338.0 690.0,338.7 692.5,339.3 695.0,339.7 697.5,340.0 700.0,340.2 702.5,340.2 705.0,340.2 707.5,340.1 710.0,340.0 712.5,339.8 715.0,339.5 717.5,339.3 720.0,339.0 722.5,338.7 725.0,338.4 727.5,338.2 730.0,337.9 732.5,337.6 735.0,337.3 737.5,337.1 740.0,336.8 742.5,336.5 745.0,336.2 747.5,335.9 750.0,335.6 752.5,335.1 755.0,334.7 757.5,334.1 760.0,333.5 762.5,332.7 765.0,331.8 767.5,330.8 770.0,329.7 772.5,328.3 775.0,326.8 777.5,325.1 780.0,323.2 782.5,321.1 785.0,318.8 787.5,316.2 790.0,313.4 792.5,310.4 795.0,307.2 797.5,303.7 800.0,300.0 802.5,296.1 805.0,292.0 807.5,287.7 810.0,283.2 812.5,278.6 815.0,273.9 817.5,269.0 820.0,264.1 822.5,259.1 825.0,254.0 827.5,249.0 830.0,243.9 832.5,239.0 835.0,234.0 837.5,229.2 840.0,224.5 842.5,220.0 845.0,215.6 847.5,211.4 850.0,207.5 852.5,203.8 855.0,200.4 857.5,197.3 860.0,194.4 862.5,191.9 865.0,189.7 867.5,187.8 870.0,186.2 872.5,185.0 875.0,184.0 877.5,183.4 880.0,183.1 882.5,183.1 885.0,183.4 887.5,183.9 890.0,184.7 892.5,185.7 895.0,186.9 897.5,188.3 900.0,189.9 902.5,191.5 905.0,193.3 907.5,195.1 910.0,197.0 912.5,198.9 915.0,200.8 917.5,202.7 920.0,204.5 922.5,206.2 925.0,207.8 927.5,209.3 930.0,210.7 932.5,211.9 935.0,212.9 937.5,213.8 940.0,214.4 942.5,214.9 945.0,215.2 947.5,215.2 950.0,215.1 952.5,214.8 955.0,214.3 957.5,213.6 960.0,212.8 962.5,211.8 965.0,210.7 967.5,209.4 970.0,208.1 972.5,206.6 975.0,205.2 977.5,203.6 980.0,202.0 982.5,200.5 985.0,198.9 987.5,197.4 990.0,195.9 992.5,194.5 995.0,193.2 997.5,192.0 1000.0,190.8 1002.5,189.8 1005.0,189.0 1007.5,188.2 1010.0,187.6 1012.5,187.2 1015.0,186.9 1017.5,186.7 1020.0,186.7 1022.5,186.8 1025.0,187.0 1027.5,187.3 1030.0,187.8 1032.5,188.3 1035.0,189.0 1037.5,189.7 1040.0,190.4" fill="none" stroke="url(#scopeGrad)" stroke-opacity="0.30" stroke-width="2.4" filter="url(#glow)"/>
    <polyline points="470.0,250.0 472.5,249.9 475.0,249.4 477.5,248.6 480.0,247.4 482.5,245.9 485.0,243.9 487.5,241.5 490.0,238.8 492.5,235.7 495.0,232.4 497.5,228.9 500.0,225.3 502.5,221.6 505.0,217.9 507.5,214.2 510.0,210.7 512.5,207.3 515.0,204.1 517.5,201.1 520.0,198.5 522.5,196.2 525.0,194.2 527.5,192.6 530.0,191.3 532.5,190.4 535.0,189.9 537.5,189.8 540.0,190.1 542.5,190.6 545.0,191.0 547.5,191.4 550.0,191.6 552.5,191.8 555.0,191.9 557.5,192.0 560.0,191.9 562.5,191.8 565.0,191.6 567.5,191.3 570.0,191.0 572.5,190.6 575.0,190.3 577.5,189.8 580.0,189.4 582.5,189.0 585.0,188.6 587.5,188.3 590.0,187.9 592.5,187.7 595.0,187.5 597.5,187.4 600.0,187.4 602.5,187.6 605.0,187.8 607.5,188.1 610.0,188.6 612.5,189.2 615.0,189.9 617.5,190.8 620.0,191.8 622.5,192.9 625.0,194.1 627.5,195.4 630.0,196.8 632.5,198.3 635.0,199.8 637.5,201.4 640.0,203.0 642.5,204.7 645.0,206.3 647.5,208.0 650.0,209.6 652.5,211.1 655.0,212.6 657.5,213.9 660.0,215.2 662.5,216.3 665.0,217.3 667.5,218.2 670.0,218.9 672.5,219.4 675.0,219.8 677.5,219.9 680.0,219.9 682.5,219.8 685.0,219.4 687.5,218.9 690.0,218.2 692.5,217.3 695.0,216.3 697.5,215.2 700.0,214.0 702.5,212.7 705.0,211.3 707.5,209.9 710.0,208.4 712.5,207.0 715.0,205.6 717.5,204.2 720.0,203.0 722.5,201.8 725.0,200.8 727.5,199.9 730.0,199.2 732.5,198.7 735.0,198.4 737.5,198.4 740.0,198.7 742.5,199.2 745.0,200.0 747.5,201.1 750.0,202.5 752.5,204.3 755.0,206.3 757.5,208.6 760.0,211.3 762.5,214.3 765.0,217.5 767.5,221.1 770.0,224.9 772.5,228.9 775.0,233.2 777.5,237.6 780.0,242.3 782.5,247.1 785.0,252.0 787.5,257.0 790.0,262.1 792.5,267.3 795.0,272.4 797.5,277.5 800.0,282.6 802.5,287.6 805.0,292.5 807.5,297.3 810.0,301.9 812.5,306.4 815.0,310.7 817.5,314.7 820.0,318.6 822.5,322.2 825.0,325.5 827.5,328.6 830.0,331.4 832.5,334.0 835.0,336.2 837.5,338.3 840.0,340.0 842.5,341.5 845.0,342.8 847.5,343.8 850.0,344.6 852.5,345.2 855.0,345.6 857.5,345.8 860.0,345.8 862.5,345.7 865.0,345.5 867.5,345.1 870.0,344.7 872.5,344.2 875.0,343.6 877.5,342.9 880.0,342.2 882.5,341.6 885.0,340.8 887.5,340.1 890.0,339.4 892.5,338.7 895.0,338.0 897.5,337.3 900.0,336.7 902.5,336.0 905.0,335.4 907.5,334.7 910.0,334.1 912.5,333.4 915.0,332.7 917.5,332.0 920.0,331.2 922.5,330.4 925.0,329.5 927.5,328.5 930.0,327.4 932.5,326.3 935.0,324.9 937.5,323.5 940.0,321.9 942.5,320.2 945.0,318.3 947.5,316.2 950.0,314.0 952.5,311.5 955.0,309.0 957.5,306.2 960.0,303.3 962.5,300.2 965.0,296.9 967.5,293.5 970.0,290.0 972.5,286.4 975.0,282.7 977.5,278.8 980.0,275.0 982.5,271.0 985.0,267.1 987.5,263.2 990.0,259.3 992.5,255.4 995.0,251.6 997.5,247.9 1000.0,244.4 1002.5,240.9 1005.0,237.7 1007.5,234.6 1010.0,231.7 1012.5,229.1 1015.0,226.7 1017.5,224.6 1020.0,222.7 1022.5,221.0 1025.0,219.7 1027.5,218.6 1030.0,217.8 1032.5,217.3 1035.0,217.0 1037.5,217.1 1040.0,217.3" fill="none" stroke="url(#scopeGrad)" stroke-width="2.6"
              stroke-linecap="round" stroke-linejoin="round"/>
    <rect x="0" y="0" width="470" height="500" fill="url(#fade)"/>
    <path d="M 181.0 124.0 L 250.0 256.5 L 319.0 124.0" fill="none" stroke="url(#vGrad)" stroke-width="28.7" stroke-linecap="round" stroke-linejoin="round" filter="url(#glow)" opacity="0.9"/>
    <path d="M 181.0 124.0 L 250.0 256.5 L 319.0 124.0" fill="none" stroke="url(#vGrad)" stroke-width="28.7" stroke-linecap="round" stroke-linejoin="round" />
    <text x="250.0" y="310.5" font-family="'Inter', 'Helvetica Neue', sans-serif" font-size="24.0" font-weight="200" fill="#1A1A22" text-anchor="middle" letter-spacing="0.34em" style="text-transform:uppercase">VELO VISUALISER</text>
    <text x="250" y="352.5" font-family="'Inter', 'Helvetica Neue', sans-serif" font-size="17" font-weight="300" fill="#6E6E68" text-anchor="middle" letter-spacing="0.04em">Sound becomes light.</text>
    <rect x="22" y="22" width="980" height="456"
          fill="none" stroke="#1A1A22" stroke-opacity="0.18" stroke-width="1"/>
  </g>
</svg>
